<?xml version="1.0" encoding="utf-8"?>
<!-- Generator: Adobe Illustrator 25.0.1, SVG Export Plug-In . SVG Version: 6.00 Build 0)  -->
<svg version="1.1" id="Layer_1" xmlns="http://www.w3.org/2000/svg" xmlns:xlink="http://www.w3.org/1999/xlink" x="0px" y="0px"
	 viewBox="0 0 200 200" style="enable-background:new 0 0 200 200;" xml:space="preserve">
<style type="text/css">
	.st0{fill:#C9FA59;}
</style>
<path class="st0" d="M178.7,34.8l-14.8-13.3c-0.1-0.1-0.1-0.1-0.2-0.2c-0.1-0.1-0.2-0.1-0.3-0.2c-0.1,0-0.2-0.1-0.3-0.1
	c-0.1,0-0.2-0.1-0.3-0.1c-0.1,0-0.2,0-0.3,0c-0.1,0-0.2,0-0.3,0c-0.1,0-0.2,0-0.3,0c-0.1,0-0.2,0-0.3,0L26.9,56.5
	c-0.9,0.2-1.6,0.9-1.8,1.8l-4.5,19.2c0,0.1,0,0.2,0,0.3c0,0.1,0,0.2,0,0.3c0,0.1,0,0.2,0,0.3c0,0.1,0,0.2,0,0.3
	c0,0.1,0.1,0.2,0.1,0.3c0,0.1,0.1,0.2,0.1,0.3c0.1,0.1,0.1,0.2,0.2,0.3c0.1,0.1,0.1,0.2,0.2,0.2l98,98.5c0.5,0.5,1.1,0.7,1.8,0.7
	c0.2,0,0.5,0,0.7-0.1l19.7-5.5c0.1,0,0.2-0.1,0.3-0.1c0.1,0,0.2-0.1,0.3-0.1c0.1-0.1,0.2-0.1,0.3-0.2c0.1-0.1,0.2-0.1,0.2-0.2
	c0.1-0.1,0.1-0.2,0.2-0.3c0.1-0.1,0.1-0.2,0.2-0.2c0.1-0.1,0.1-0.2,0.1-0.3c0-0.1,0.1-0.2,0.1-0.3l36.3-134.4
	C179.7,36.4,179.4,35.5,178.7,34.8z M79.8,83.1l50.5-12.9l-13,50L79.8,83.1z M29.6,60.9l129.1-34L131,133.7l-9.6-9.5l19.7-75.9l0,0
	c0,0,0,0,0,0l0,0c0-0.1,0-0.2,0-0.3c0-0.1,0-0.3,0-0.4c0,0,0-0.1,0-0.1c0-0.2,0-0.3-0.1-0.5c0,0,0,0,0,0c-0.1-0.4-0.3-0.8-0.6-1.1
	c-0.2-0.2-0.3-0.3-0.5-0.4c-0.6-0.3-1.2-0.4-1.9-0.2L26.4,74.6L29.6,60.9z M27.8,79.4l107.4-28.3l-3.5,13.5L56.8,83.8L56.3,84
	c-0.2,0.1-0.4,0.1-0.6,0.2c-0.6,0.3-1,0.9-1.2,1.5c-0.2,0.9,0,1.8,0.6,2.4l80.8,81.7l-14.2,4L27.8,79.4z M139.4,166.3L61.7,87.7
	l12.4-3.2l56.2,55.5l0.2,0.2c0.1,0.1,0.3,0.3,0.5,0.4c0,0,0.1,0.1,0.2,0.1c0.1,0.1,0.3,0.1,0.4,0.2c0.1,0,0.1,0,0.2,0
	c0.2,0,0.4,0.1,0.6,0.1c0,0,0,0,0,0c0.2,0,0.3,0,0.5-0.1c0.1,0,0.1,0,0.2,0c0,0,0,0,0,0c0,0,0,0,0,0c0.1,0,0.1-0.1,0.2-0.1
	c0.1-0.1,0.3-0.1,0.4-0.2c0.1-0.1,0.3-0.2,0.4-0.3c0,0,0.1,0,0.1-0.1c0.3-0.3,0.5-0.7,0.6-1.1L163.6,28l10.6,9.5L139.4,166.3z"/>
</svg>
